# xmcd CD database file
#
# Track frame offsets:
#	150
#	20025
#	39900
#	59775
#	90702
#
# Disc length: 4440 seconds
#
# Revision: 1
# Processed by: cddbd v1.5PL3 Copyright (c) Steve Scherf et al.
# Submitted via: CDex 1.50beta9
#
DISCID=3e115605
DTITLE=今井 絵理子 - Butterfly
DYEAR=2003
DGENRE=JPop
TTITLE0=Butterfly
TTITLE1=Can U feel me？
TTITLE2=Butterfly (Instrumental)
TTITLE3=Can U feel me？ (Instrumental)
TTITLE4=CCCD data
EXTD=YEAR: 2003
EXTT0=
EXTT1=
EXTT2=
EXTT3=
EXTT4=
PLAYORDER=
